<?xml version="1.0" standalone="no"?>
<!DOCTYPE svg PUBLIC "-//W3C//DTD SVG 20010904//EN"
 "http://www.w3.org/TR/2001/REC-SVG-20010904/DTD/svg10.dtd">
<svg version="1.0" xmlns="http://www.w3.org/2000/svg"
 width="900.000000pt" height="900.000000pt" viewBox="0 0 900.000000 900.000000"
 preserveAspectRatio="xMidYMid meet">
<metadata>
Created by potrace 1.10, written by Peter Selinger 2001-2011
</metadata>
<g transform="translate(0.000000,900.000000) scale(0.100000,-0.100000)"
fill="#000000" stroke="none">
<path d="M4195 8734 c-33 -7 -82 -13 -108 -14 -27 0 -57 -5 -68 -11 -11 -6
-41 -14 -67 -19 -60 -11 -132 -33 -202 -60 -30 -12 -67 -24 -82 -27 -15 -3
-33 -11 -39 -19 -6 -8 -18 -14 -26 -14 -17 0 -163 -72 -241 -118 -29 -18 -55
-32 -57 -32 -3 0 -34 -20 -71 -45 -36 -25 -67 -45 -70 -45 -9 0 -167 -122
-281 -217 -119 -99 -250 -235 -379 -395 -80 -98 -223 -289 -237 -318 -4 -8
-15 -27 -25 -42 -9 -15 -41 -67 -70 -115 -29 -48 -57 -95 -63 -103 -5 -8 -14
-24 -19 -35 -6 -11 -19 -33 -30 -50 -11 -16 -22 -37 -26 -45 -3 -8 -14 -31
-25 -50 -28 -51 -146 -297 -177 -370 -8 -19 -19 -42 -24 -50 -4 -8 -11 -22
-14 -30 -3 -8 -13 -33 -21 -55 -9 -22 -21 -53 -28 -70 -7 -16 -20 -48 -28 -70
-33 -89 -50 -131 -60 -150 -5 -11 -14 -33 -18 -50 -4 -16 -17 -55 -29 -85 -12
-30 -25 -68 -30 -85 -4 -16 -12 -41 -17 -55 -6 -14 -18 -52 -28 -85 -9 -33
-23 -76 -30 -95 -7 -19 -27 -82 -45 -140 -18 -58 -38 -121 -45 -140 -17 -47
-39 -122 -60 -200 -9 -36 -22 -76 -27 -90 -6 -14 -15 -43 -19 -65 -9 -47 -26
-116 -41 -164 -11 -37 -34 -132 -47 -196 -4 -22 -13 -58 -19 -80 -5 -22 -18
-76 -27 -120 -9 -44 -23 -111 -31 -150 -9 -38 -22 -98 -30 -132 -8 -34 -14
-74 -14 -91 0 -16 -5 -42 -10 -58 -6 -16 -15 -58 -20 -94 -5 -36 -14 -94 -20
-130 -84 -508 -117 -881 -90 -1004 7 -28 15 -76 20 -106 7 -52 13 -74 48 -165
20 -53 78 -172 102 -210 11 -16 23 -37 27 -45 43 -94 394 -456 583 -600 25
-19 50 -38 55 -43 18 -14 140 -102 161 -117 62 -43 319 -217 339 -230 13 -8
50 -33 82 -54 55 -37 223 -147 323 -212 57 -37 80 -51 105 -64 11 -6 34 -19
50 -30 17 -11 39 -24 50 -30 11 -6 34 -19 50 -30 17 -11 37 -23 45 -27 8 -4
47 -26 85 -48 39 -23 77 -44 85 -48 8 -4 42 -22 75 -41 33 -18 92 -50 130 -71
39 -21 93 -50 120 -65 136 -75 440 -230 575 -293 56 -26 126 -50 230 -80 139
-40 343 -29 500 28 90 33 182 70 210 87 8 4 22 11 30 14 8 3 22 10 30 15 8 5
21 11 28 14 29 12 41 18 117 60 44 25 107 59 140 76 33 16 76 39 95 51 19 11
67 38 105 58 89 47 132 71 300 168 22 12 54 29 70 38 17 8 44 23 60 34 17 11
39 24 50 30 11 6 34 19 50 30 17 11 39 24 50 30 24 13 46 27 102 63 24 15 45
27 49 27 3 0 23 12 43 28 41 31 69 49 91 59 8 4 43 26 78 50 35 24 65 43 67
43 2 0 52 33 112 72 59 40 116 77 125 83 9 5 56 37 103 70 48 33 94 65 103 70
28 17 297 218 307 230 6 6 33 29 60 50 85 66 309 296 379 387 36 48 66 89 66
92 0 3 13 24 28 48 26 39 76 139 107 213 18 42 42 134 61 234 13 67 15 123 11
270 -3 102 -8 200 -12 216 -3 17 -10 71 -15 120 -4 50 -13 113 -18 140 -5 28
-17 104 -26 170 -10 66 -22 140 -27 165 -6 25 -14 74 -20 110 -5 36 -13 78
-19 94 -5 16 -10 40 -10 54 0 13 -7 56 -15 96 -16 72 -30 136 -60 281 -9 44
-22 103 -30 130 -7 28 -20 86 -30 130 -9 44 -24 98 -31 120 -8 23 -14 49 -14
59 0 10 -7 39 -14 65 -8 25 -22 71 -30 101 -23 85 -47 171 -61 215 -7 22 -20
67 -30 100 -10 33 -23 76 -30 95 -7 19 -21 62 -30 95 -10 33 -23 76 -30 95 -7
19 -27 82 -45 140 -31 102 -40 129 -74 218 -9 23 -23 60 -31 82 -8 22 -22 59
-31 83 -9 23 -23 60 -31 82 -53 138 -122 293 -228 505 -75 153 -103 205 -160
305 -55 97 -53 93 -165 270 -31 49 -95 140 -103 146 -4 3 -20 24 -35 46 -62
93 -194 246 -326 378 -322 321 -708 566 -1051 668 -152 45 -246 67 -330 78
-38 5 -92 13 -120 18 -77 15 -479 12 -550 -5z m686 -1348 c63 -9 135 -23 160
-31 26 -8 59 -15 73 -15 15 0 37 -5 49 -12 12 -6 40 -15 62 -19 22 -4 56 -12
75 -19 100 -36 117 -43 143 -56 16 -8 34 -14 41 -14 18 0 294 -141 350 -178
26 -18 49 -32 52 -32 3 0 51 -34 107 -76 104 -78 318 -282 381 -364 20 -25 56
-70 80 -100 25 -30 45 -59 46 -63 0 -4 17 -31 39 -60 21 -29 51 -74 67 -100
16 -27 37 -61 46 -75 9 -15 35 -63 58 -107 23 -44 45 -87 50 -95 9 -15 28 -58
74 -162 24 -56 25 -67 40 -495 35 -988 42 -1401 27 -1511 -29 -206 -88 -449
-146 -602 -8 -19 -24 -66 -36 -103 -12 -37 -26 -70 -30 -73 -5 -3 -9 -16 -9
-29 0 -13 -4 -26 -9 -29 -8 -5 -34 -56 -55 -106 -3 -8 -10 -23 -16 -32 -19
-34 -29 -53 -50 -98 -12 -25 -26 -52 -31 -60 -5 -8 -15 -28 -23 -45 -13 -30
-202 -315 -215 -325 -3 -3 -19 -24 -35 -47 -16 -24 -38 -53 -50 -65 -12 -13
-43 -50 -68 -83 -87 -115 -230 -275 -399 -446 -121 -123 -233 -223 -423 -379
-81 -66 -255 -179 -277 -180 -9 0 -22 -7 -29 -15 -7 -8 -21 -15 -30 -15 -10 0
-31 -6 -47 -14 -40 -20 -91 -37 -138 -46 -22 -5 -68 -14 -101 -21 -34 -6 -69
-9 -77 -6 -17 6 -15 17 23 102 4 11 16 45 25 75 10 30 23 71 30 90 29 84 37
108 52 160 8 30 22 82 30 115 20 80 28 320 13 382 -6 26 -15 64 -20 83 -4 19
-17 59 -28 88 -19 49 -20 58 -7 120 7 37 19 83 26 102 6 19 14 41 15 48 5 17
66 42 104 42 77 0 295 93 367 157 20 18 34 35 31 38 -6 6 -85 -11 -141 -31
-20 -8 -54 -14 -75 -14 -20 0 -53 -5 -72 -11 -58 -17 -272 -31 -490 -31 -281
1 -434 15 -630 58 -80 17 -120 18 -120 2 0 -13 67 -55 145 -92 22 -10 48 -23
59 -28 26 -14 111 -36 181 -49 59 -10 95 -31 95 -54 0 -7 7 -26 15 -41 8 -16
15 -37 15 -46 0 -10 5 -38 12 -62 12 -46 6 -72 -54 -251 -5 -16 -12 -77 -15
-133 -7 -122 17 -262 69 -417 5 -16 14 -46 18 -65 10 -44 29 -97 46 -132 8
-14 14 -33 14 -41 0 -9 6 -28 14 -44 31 -62 46 -105 41 -114 -19 -30 -260 27
-415 100 -80 37 -271 166 -305 207 -5 6 -17 15 -26 20 -93 50 -651 608 -749
748 -8 11 -30 38 -49 58 -19 21 -45 55 -59 75 -14 21 -32 44 -40 52 -7 8 -25
33 -39 55 -15 23 -46 67 -70 98 -23 31 -43 60 -43 63 0 4 -13 24 -30 45 -17
21 -30 40 -30 43 0 3 -12 25 -27 49 -43 66 -47 74 -118 218 -74 149 -85 174
-110 240 -9 25 -23 60 -31 78 -8 18 -14 39 -14 47 0 8 -6 29 -14 47 -7 18 -21
60 -30 93 -10 33 -23 80 -31 105 -7 25 -20 81 -30 125 -9 44 -24 105 -32 135
-30 108 -27 817 6 1850 7 213 7 216 38 280 17 36 33 72 37 80 3 8 11 24 18 35
17 30 25 45 48 95 12 25 26 52 31 60 5 8 13 24 18 35 5 11 20 36 33 55 13 19
27 42 31 50 8 16 19 34 84 130 178 266 472 551 717 694 69 40 237 125 304 153
17 7 47 19 65 26 44 19 96 37 132 47 29 8 59 18 128 41 31 11 51 15 182 39 33
6 81 16 107 21 132 29 611 32 799 5z"/>
<path d="M2975 6478 c-163 -27 -324 -125 -431 -263 -41 -54 -124 -193 -124
-208 0 -7 -7 -22 -15 -33 -17 -23 -19 -44 -4 -44 6 0 28 12 48 28 45 34 69 49
101 63 311 140 616 113 965 -85 45 -25 165 -109 247 -173 284 -223 330 -255
339 -242 12 18 1 88 -17 114 -8 11 -14 40 -14 65 0 40 4 49 30 69 17 12 44 41
60 63 43 59 41 112 -6 189 -20 32 -40 59 -43 59 -3 0 -28 21 -56 45 -27 25
-54 45 -59 45 -4 0 -25 13 -45 28 -20 16 -43 32 -51 36 -8 4 -42 22 -75 41
-141 80 -265 130 -435 176 -110 29 -320 43 -415 27z"/>
<path d="M5758 6485 c-3 -3 -39 -10 -79 -15 -89 -11 -183 -37 -276 -77 -17 -7
-38 -13 -46 -13 -8 0 -20 -7 -27 -15 -7 -8 -18 -15 -25 -15 -6 0 -32 -11 -56
-24 -24 -14 -64 -35 -89 -47 -25 -12 -61 -35 -81 -51 -20 -15 -40 -28 -44 -28
-12 0 -80 -54 -143 -114 -76 -73 -102 -119 -102 -181 0 -42 4 -49 60 -105 57
-57 60 -63 60 -107 0 -27 -7 -57 -15 -67 -20 -26 -20 -116 -1 -116 7 0 19 7
26 15 7 8 67 56 134 107 66 51 123 95 126 98 3 3 23 19 45 36 22 16 46 34 53
41 28 26 212 143 277 176 94 46 194 84 260 97 163 33 273 39 350 19 22 -5 60
-13 85 -18 95 -19 186 -61 279 -129 55 -40 73 -30 45 25 -32 62 -107 186 -123
203 -9 9 -33 38 -54 63 -65 81 -191 165 -307 206 -80 29 -314 54 -332 36z"/>
<path d="M3150 5481 c-55 -7 -106 -21 -168 -47 -18 -8 -39 -14 -46 -14 -8 0
-19 -7 -26 -15 -7 -8 -19 -15 -26 -15 -26 0 -160 -108 -220 -176 -83 -94 -102
-110 -164 -141 -39 -20 -55 -34 -55 -48 0 -19 9 -20 115 -26 100 -5 128 -11
215 -43 55 -21 119 -42 143 -47 24 -5 47 -11 52 -14 26 -16 202 -38 310 -39
272 -2 497 64 637 188 63 56 56 123 -23 202 -97 97 -209 159 -391 218 -58 18
-265 29 -353 17z"/>
<path d="M5600 5479 c-169 -17 -361 -104 -482 -217 -49 -46 -88 -109 -88 -143
0 -27 84 -109 140 -137 25 -13 52 -27 60 -31 17 -10 76 -32 135 -51 122 -40
340 -58 460 -40 44 7 103 16 130 20 91 13 229 57 325 103 24 12 67 18 136 20
107 4 124 8 124 36 0 12 -24 29 -80 54 -44 20 -80 41 -80 46 0 33 -246 251
-284 251 -7 0 -19 7 -26 15 -7 8 -18 15 -25 15 -7 0 -26 7 -41 15 -16 8 -36
15 -45 15 -8 0 -35 6 -60 14 -51 17 -205 24 -299 15z"/>
<path d="M4375 5155 c-13 -60 -37 -141 -51 -173 -8 -18 -14 -40 -14 -50 0 -9
-6 -37 -14 -62 -24 -75 -44 -151 -61 -235 -9 -44 -21 -100 -27 -125 -5 -25
-14 -72 -18 -105 -4 -33 -12 -85 -18 -115 -41 -210 -49 -364 -26 -463 l6 -28
-118 3 -119 3 2 53 c1 29 9 65 16 80 8 15 25 47 37 72 13 25 33 56 46 71 33
35 30 49 -10 49 -90 0 -210 -142 -236 -280 -15 -80 10 -140 76 -181 26 -16 50
-19 147 -19 88 0 125 -4 152 -17 42 -20 44 -32 9 -64 -31 -28 -144 -174 -144
-186 -1 -4 -11 -20 -23 -35 -22 -26 -24 -26 -187 -32 -91 -4 -217 -9 -280 -12
-119 -6 -199 5 -255 33 -46 24 -111 91 -166 171 -52 77 -62 112 -30 112 10 0
49 12 87 26 38 14 80 28 93 31 32 8 148 69 169 90 33 32 52 68 52 100 0 37
-12 48 -37 35 -43 -23 -95 -42 -111 -42 -9 0 -26 -7 -36 -15 -11 -8 -30 -15
-42 -15 -12 0 -38 -7 -57 -15 -20 -8 -49 -15 -64 -15 -15 0 -48 -8 -73 -16
-34 -13 -86 -17 -220 -18 -149 -1 -184 2 -235 19 -33 10 -67 25 -76 32 -8 7
-22 13 -31 13 -8 0 -45 27 -81 60 -59 54 -66 58 -72 40 -3 -11 -3 -25 1 -31 4
-7 13 -39 19 -73 19 -92 43 -150 111 -271 18 -33 40 -73 48 -90 8 -16 29 -52
45 -80 17 -27 35 -59 41 -70 6 -11 20 -36 32 -55 11 -19 31 -53 42 -75 12 -22
41 -68 64 -103 23 -35 42 -66 42 -68 0 -3 26 -40 58 -82 32 -42 73 -99 92
-126 18 -27 40 -57 49 -66 9 -9 48 -59 86 -110 64 -84 93 -121 150 -185 11
-12 46 -54 78 -93 58 -70 107 -112 107 -92 0 5 -4 10 -10 10 -5 0 -10 8 -10
19 0 10 -7 24 -15 31 -8 7 -15 16 -15 21 0 5 -12 28 -27 52 -38 57 -51 79 -60
97 -8 18 -119 208 -133 230 -5 8 -21 38 -35 65 -14 28 -41 77 -60 110 -52 92
-285 557 -285 571 0 6 -7 17 -15 24 -23 19 -19 60 5 60 19 0 40 -27 86 -110
10 -19 31 -51 47 -71 15 -20 27 -40 27 -44 0 -11 122 -168 159 -205 145 -144
280 -179 711 -187 399 -7 426 3 590 211 113 142 143 177 150 169 4 -4 29 -37
56 -73 27 -36 55 -72 62 -80 7 -8 37 -44 66 -80 112 -137 157 -150 497 -150
129 1 254 5 279 11 25 5 74 14 110 19 177 23 255 62 373 184 60 62 183 240
232 333 30 59 49 78 69 70 12 -5 13 -13 6 -37 -9 -32 -200 -419 -263 -535 -19
-33 -49 -89 -69 -125 -19 -36 -45 -81 -56 -100 -12 -19 -28 -48 -36 -65 -8
-16 -29 -52 -45 -80 -17 -27 -35 -59 -41 -70 -6 -11 -19 -33 -30 -50 -11 -16
-24 -41 -30 -54 -6 -13 -21 -38 -33 -55 -77 -108 -74 -138 6 -55 41 43 210
241 281 329 97 121 316 430 316 445 0 2 12 21 26 42 14 21 30 47 35 58 5 11
18 34 29 50 11 17 23 37 27 45 4 8 19 37 35 63 27 46 53 94 128 232 17 33 36
64 41 70 5 5 9 18 9 30 0 12 5 26 10 31 6 6 20 47 30 90 31 126 22 216 -14
145 -34 -64 -126 -127 -246 -167 -76 -26 -364 -26 -458 -1 -35 9 -73 17 -85
17 -12 0 -42 7 -67 15 -25 8 -86 28 -137 45 -50 16 -93 30 -96 30 -28 0 2 -99
40 -131 43 -38 160 -90 243 -108 19 -4 45 -13 57 -19 12 -7 31 -12 42 -12 47
0 34 -32 -66 -165 -77 -104 -118 -129 -236 -145 -53 -7 -109 -9 -124 -5 -22 6
-255 14 -434 15 -22 0 -41 19 -108 108 -44 60 -89 117 -101 127 -46 42 -13 71
119 106 41 10 94 19 117 19 38 0 50 6 89 43 44 42 45 45 45 104 0 103 -47 180
-118 193 -60 11 -95 -19 -58 -49 8 -7 21 -34 30 -62 22 -68 13 -79 -68 -79
-33 0 -79 -5 -101 -11 -22 -6 -51 -13 -65 -16 -54 -11 -174 -70 -253 -125 -53
-37 -81 -35 -145 8 -38 27 -62 54 -88 101 -36 63 -36 64 -31 161 3 57 13 126
26 167 48 161 55 237 58 648 2 231 0 395 -6 405 -8 14 -10 12 -16 -13z"/>
<path d="M4850 2848 c-58 -4 -302 -7 -542 -5 -356 3 -438 1 -438 -10 0 -7 12
-15 28 -18 15 -3 45 -10 67 -15 22 -6 69 -15 105 -20 36 -6 79 -14 95 -19 17
-5 98 -15 181 -22 194 -16 399 2 631 57 34 7 70 14 80 14 10 0 41 11 68 24
l50 24 -110 0 c-60 -1 -157 -5 -215 -10z"/>
</g>
</svg>
